<!-- icon666.com - MILLIONS OF FREE VECTOR ICONS --><svg id="Layer_1" viewBox="0 0 55 55" xmlns="http://www.w3.org/2000/svg" data-name="Layer 1"><path d="m27.5 46.43a.77.77 0 0 1 -.61-.31c-.59-.83-14.45-20.26-14.45-28.31a15.06 15.06 0 0 1 30.12 0c0 8.05-13.86 27.48-14.45 28.31a.77.77 0 0 1 -.61.31zm0-42.18a13.57 13.57 0 0 0 -13.56 13.56c0 6.65 10.84 22.66 13.56 26.56 2.71-3.9 13.56-19.91 13.56-26.56a13.58 13.58 0 0 0 -13.56-13.56z"></path><path d="m27.5 26.78a9.37 9.37 0 1 1 9.36-9.36 9.38 9.38 0 0 1 -9.36 9.36zm0-17.23a7.87 7.87 0 1 0 7.86 7.87 7.88 7.88 0 0 0 -7.86-7.87z"></path><path d="m45.46 52.25h-35.93a.75.75 0 0 1 -.69-1l5.1-13.06a.75.75 0 0 1 .7-.48h8a.75.75 0 0 1 0 1.5h-7.5l-4.51 11.53h33.74l-4.51-11.54h-7.52a.75.75 0 0 1 0-1.5h8a.74.74 0 0 1 .69.47l5.09 13.06a.75.75 0 0 1 -.7 1z"></path><path d="m27 45.72h-14.92a.75.75 0 1 1 0-1.5h14.92a.75.75 0 1 1 0 1.5z"></path><path d="m42.92 45.72h-14.92a.75.75 0 1 1 0-1.5h14.92a.75.75 0 0 1 0 1.5z"></path><path d="m34 45.72a.76.76 0 0 1 -.75-.75v-6.52a.75.75 0 0 1 1.5 0v6.55a.76.76 0 0 1 -.75.72z"></path><path d="m19.73 52.24a.75.75 0 0 1 -.75-.75v-6.49a.75.75 0 0 1 1.5 0v6.52a.75.75 0 0 1 -.75.72z"></path></svg>